<?xml version="1.0" encoding="UTF-8"?>
<svg id="Layer_1" data-name="Layer 1" xmlns="http://www.w3.org/2000/svg" viewBox="0 0 122.88 122.88">
  <defs>
    <style>
      .cls-1 {
        fill: #fff;
        fill-rule: evenodd;
      }
    </style>
  </defs>
  <path class="cls-1" d="m61.44,0c33.93,0,61.44,27.51,61.44,61.44s-27.51,61.44-61.44,61.44c-33.93,0-61.44-27.51-61.44-61.44S27.51,0,61.44,0h0Zm37.06,37.05l-61.45,61.45c7,4.62,15.38,7.31,24.39,7.31,24.5,0,44.37-19.87,44.37-44.37,0-9.01-2.69-17.39-7.3-24.39h0ZM24.38,85.83l61.45-61.45c-7-4.61-15.38-7.3-24.39-7.3-24.5,0-44.37,19.87-44.37,44.37,0,9.01,2.69,17.39,7.31,24.39h0Z"/>
</svg>